<?xml version="1.0" encoding="UTF-8"?>
<svg width="27px" height="24px" viewBox="0 0 27 24" version="1.1" xmlns="http://www.w3.org/2000/svg" xmlns:xlink="http://www.w3.org/1999/xlink">
    <!-- Generator: Sketch 52.3 (67297) - http://www.bohemiancoding.com/sketch -->
    <title>“</title>
    <desc>Created with Sketch.</desc>
    <g id="Full-Designs" stroke="none" stroke-width="1" fill="none" fill-rule="evenodd">
        <g id="Services" transform="translate(-747.000000, -1254.000000)" fill="#DAE1E6">
            <g id="Quotes-Row" transform="translate(358.000000, 1183.000000)">
                <g id="Quote" transform="translate(0.000000, 71.000000)">
                    <path d="M398.432,2.688 C397.471995,3.93600624 396.536005,5.67598884 395.624,7.908 C394.711995,10.1400112 394.28,12.1919906 394.328,14.064 C394.760002,13.9199993 395.263997,13.848 395.84,13.848 C397.232007,13.848 398.407995,14.243996 399.368,15.036 C400.328005,15.828004 400.808,17.0159921 400.808,18.6 C400.808,20.1360077 400.316005,21.4199948 399.332,22.452 C398.347995,23.4840052 397.064008,24 395.48,24 C393.41599,24 391.820006,23.2920071 390.692,21.876 C389.563994,20.4599929 389,18.648011 389,16.44 C389,14.0879882 389.563994,11.5440137 390.692,8.808 C391.820006,6.07198632 393.463989,3.36001344 395.624,0.672 L398.432,2.688 Z M412.832,2.688 C411.871995,3.93600624 410.936005,5.67598884 410.024,7.908 C409.111995,10.1400112 408.68,12.1919906 408.728,14.064 C409.160002,13.9199993 409.663997,13.848 410.24,13.848 C411.632007,13.848 412.807995,14.243996 413.768,15.036 C414.728005,15.828004 415.208,17.0159921 415.208,18.6 C415.208,20.1360077 414.716005,21.4199948 413.732,22.452 C412.747995,23.4840052 411.464008,24 409.88,24 C407.81599,24 406.220006,23.2920071 405.092,21.876 C403.963994,20.4599929 403.4,18.648011 403.4,16.44 C403.4,14.0879882 403.963994,11.5440137 405.092,8.808 C406.220006,6.07198632 407.863989,3.36001344 410.024,0.672 L412.832,2.688 Z" id="“"></path>
                </g>
            </g>
        </g>
    </g>
</svg>